{"title":"HOTEL FOR DOGS 2009@RELEASE BY STIG","uid":5018261,"size":841352820,"categoryP":"video","categoryS":"movies","magnet":"?xt=urn:btih:468629015d1ca4584dc61a797bfcfe8558bd377c&amp;dn=HOTEL+FOR+DOGS+2009%40RELEASE+BY+STIG&amp;tr=udp%3A%2F%2Ftracker.openbittorrent.com%3A80&amp;tr=udp%3A%2F%2Fopen.demonii.com%3A1337&amp;tr=udp%3A%2F%2Ftracker.coppersurfer.tk%3A6969&amp;tr=udp%3A%2F%2Fexodus.desync.com%3A6969","seeders":0,"leechers":0,"uploader":"alanwatson","files":4,"time":1248333542,"description":"Hotel For Dogs stars Emma Roberts, Jake T. Austin, Kyla Pratt with Lisa Kudrow, Kevin Dillon and Don Cheadle in a smart, funny comedy adventure that shows how far love and imagination can take you.\nWhen 16 year old Andi (Roberts) and her younger brother, Bruce (Austin), find themselves in a foster home with a strict 'no pets' policy, Andi has to use her quick wit to help find a new home for their dog, Friday. The kids stumble upon an abandoned hotel and begin transforming it into the perfect home for Friday - as well as all the strays in the city. In no time, the kids have transformed the old hotel into something truly magical: a home for both the dogs and for themselves. But they have also aroused the suspicions of the police who want to know - who let the dogs in?\n\n\nFormat : MPEG-4\nFormat profile : Base Media / Version 2\nCodec ID : mp42\nFile size : 800 MiB\nDuration : 1h 35mn\nOverall bit rate : 1 167 Kbps\nEncoded date : UTC 2009-07-22 15:22:53\nTagged date : UTC 2009-07-22 19:49:07\nWriting application : HandBrake 0.9.3 2008112300\n\nVideo\nID : 1\nFormat : AVC\nFormat/Info : Advanced Video Codec\nFormat profile : &lt;a class=&quot;__cf_email__&quot; href=&quot;/cdn-cgi/l/email-protection&quot; data-cfemail=&quot;7b361a12153b374f554b&quot;&gt;[email&amp;#160;protected]&lt;/a&gt;&lt;script cf-hash='f9e31' type=&quot;text/javascript&quot;&gt;\n/* &lt;![CDATA[ */!function(){try{var t=&quot;currentScript&quot;in document?document.currentScript:function(){for(var t=document.getElementsByTagName(&quot;script&quot;),e=t.length;e--;)if(t[e].getAttribute(&quot;cf-hash&quot;))return t[e]}();if(t&amp;&amp;t.previousSibling){var e,r,n,i,c=t.previousSibling,a=c.getAttribute(&quot;data-cfemail&quot;);if(a){for(e=&quot;&quot;,r=parseInt(a.substr(0,2),16),n=2;a.length-n;n+=2)i=parseInt(a.substr(n,2),16)^r,e+=String.fromCharCode(i);e=document.createTextNode(e),c.parentNode.replaceChild(e,c)}}}catch(u){}}();/* ]]&gt; */&lt;/script&gt;\nFormat settings, CABAC : Yes\nFormat settings, ReFrames : 3 frames\nCodec ID : avc1\nCodec ID/Info : Advanced Video Coding\nDuration : 1h 35mn\nBit rate mode : Variable\nBit rate : 1 003 Kbps\nWidth : 720 pixels\nHeight : 574 pixels\nDisplay aspect ratio : 16/9\nFrame rate mode : Variable\nFrame rate : 25.000 fps\nMinimum frame rate : 12.500 fps\nMaximum frame rate : 25.000 fps\nResolution : 24 bits\nColorimetry : 4:2:0\nScan type : Progressive\nBits/(Pixel*Frame) : 0.097\nStream size : 688 MiB (86%)\nWriting library : x264 core 65\n\nAudio\nID : 2\nFormat : AAC\nFormat/Info : Advanced Audio Codec\nFormat version : Version 4\nFormat profile : LC\nFormat settings, SBR : No\nCodec ID : 40\nDuration : 1h 35mn\nBit rate mode : Variable\nBit rate : 160 Kbps\nMaximum bit rate : 229 Kbps\nChannel(s) : 2 channels\nChannel positions : L R\nSampling rate : 48.0 KHz\nResolution : 16 bits\nStream size : 110 MiB (14%)\nLanguage : English\nEncoded date : UTC 2009-07-22 15:22:53\nTagged date : UTC 2009-07-22 19:49:01","torrent":{"xt":"urn:btih:468629015d1ca4584dc61a797bfcfe8558bd377c","amp;dn":"HOTEL+FOR+DOGS+2009%40RELEASE+BY+STIG","amp;tr":["udp%3A%2F%2Ftracker.openbittorrent.com%3A80","udp%3A%2F%2Fopen.demonii.com%3A1337","udp%3A%2F%2Ftracker.coppersurfer.tk%3A6969","udp%3A%2F%2Fexodus.desync.com%3A6969"],"infoHash":"468629015d1ca4584dc61a797bfcfe8558bd377c","infoHashBuffer":{"type":"Buffer","data":[70,134,41,1,93,28,164,88,77,198,26,121,123,252,254,133,88,189,55,124]},"announce":[],"urlList":[]}}